<?xml version="1.0" encoding="utf-8"?>
<!-- Generator: Adobe Illustrator 21.0.0, SVG Export Plug-In . SVG Version: 6.00 Build 0)  -->
<svg version="1.1" id="Layer_1" xmlns="http://www.w3.org/2000/svg" xmlns:xlink="http://www.w3.org/1999/xlink" x="0px" y="0px"
	 viewBox="0 0 200 95.3" style="enable-background:new 0 0 200 95.3;" xml:space="preserve">
<style type="text/css">
	.st0{fill:none;}
	.st1{clip-path:url(#SVGID_2_);}
	.st2{fill:#1D1D1B;}
	.st3{fill:#C6093B;}
</style>
<title>pr-sgn</title>
<g id="Layer_2">
	<g id="Layer_1-2">
		<rect x="0.2" class="st0" width="199.8" height="95.3"/>
		<g>
			<g>
				<defs>
					<rect id="SVGID_1_" x="1.1" y="16" width="158.3" height="63.3"/>
				</defs>
				<clipPath id="SVGID_2_">
					<use xlink:href="#SVGID_1_"  style="overflow:visible;"/>
				</clipPath>
				<g class="st1">
					<path class="st2" d="M11.7,47.2v-5.1c0.2,0,0.6,0,1.1,0s0.9,0,1.2,0c2,0.1,3.9-0.4,5.6-1.3c1.4-0.9,2.3-2.5,2.2-4.1
						c0-1.5-0.7-2.8-2-3.6c-1.8-1-3.8-1.5-5.8-1.4H6v0.5c0.7,0,1.4,0.2,2,0.6c0.4,0.6,0.5,1.2,0.5,1.9v12.1c0.1,0.8-0.1,1.5-0.4,2.2
						c-0.6,0.4-1.3,0.7-2.1,0.6v0.7h8.5v-0.7c-0.8,0-1.6-0.2-2.2-0.5C11.9,49,11.7,48.3,11.7,47.2z M11.7,33.8c0-0.3,0-0.5,0.2-0.8
						c0.3-0.2,0.7-0.2,1.1-0.2c1,0,2.1,0.1,3,0.5c1.4,0.6,2.3,2,2.2,3.5c0,1.8-0.7,3.1-2,3.7c-1,0.4-2,0.6-3.1,0.5
						c-0.1,0-0.3,0-0.5,0s-0.5,0-1-0.1L11.7,33.8z M89.8,49.3c-0.4-0.2-0.7-0.5-1-0.9l-5.5-6.8c1.3-0.2,2.4-0.7,3.5-1.4
						c0.9-0.8,1.5-2,1.4-3.3c0.1-2-1.2-3.8-3.1-4.3c-1.3-0.4-2.7-0.7-4-0.6h-7.8v0.8h0.1c0.7,0,1.3,0.2,1.8,0.5
						c0.3,0.5,0.5,1.2,0.4,1.8V47c0,1.4-0.2,1.9-0.4,2.1c-0.6,0.4-1.4,0.7-2.2,0.6c-0.9,0.1-1.8-0.1-2.5-0.6
						c-0.9-0.7-1.7-1.5-2.4-2.3l-6.4-6.9c0,0,3.8-3.6,5.2-4.8c1.3-1.3,3-2.1,4.7-2.1v-1H64v0.8c1.2,0,2.1,0.2,1.9,1
						C65.8,34.3,65,35,63,37c-1.1,1-2.5,2.3-4.3,3.8v-5.6c-0.1-0.6,0.1-1.3,0.4-1.8c0.6-0.4,1.3-0.5,2-0.5h0.1V32h-8.1v0.8h0.1
						c0.7,0,1.4,0.1,1.9,0.5c0.2,0.2,0.4,0.6,0.4,1.8V47c0,1.4-0.2,1.9-0.4,2.1c-0.3,0.4-0.6,0.5-1.5,0.5c-0.5,0-1-0.1-1.5-0.4
						c-0.4-0.2-0.7-0.5-1-0.9l-5.5-6.8c1.3-0.2,2.4-0.7,3.5-1.4c0.9-0.8,1.5-2,1.4-3.3c0.1-2-1.2-3.8-3.1-4.3
						c-1.3-0.4-2.7-0.7-4-0.6h-7.8v0.8h0.1c0.7,0,1.3,0.2,1.8,0.5c0.3,0.5,0.5,1.2,0.4,1.8v12c0,2.1-0.5,2.6-1.5,2.6
						c-0.4,0-0.8-0.2-1.2-0.4c-0.5-0.6-0.8-1.2-1.1-1.9L27.8,32h-1L19,50.2v0.2h1.7v-0.1l2.4-5.8h7c0.2,0.5,1.4,3.4,1.7,4.1
						c0.3,1,1.3,1.8,2.3,1.8h9.6v-0.8h-0.1c-0.7,0-1.3-0.2-1.9-0.5c-0.2-0.2-0.4-0.6-0.4-1.8V42l1-0.1c0.5,0.7,5.2,6.5,5.8,7.1
						c0.7,0.8,1.7,1.3,2.9,1.4h10.5v-0.8h-0.1c-0.7,0-1.3-0.2-1.9-0.5c-0.2-0.2-0.4-0.6-0.4-1.8v-4.9l0.7-0.6
						c0.8,0.9,5.6,6.1,6.1,6.6c0.6,0.6,2,2,3.8,2h11.7v-0.8h-0.1c-0.7,0-1.3-0.2-1.9-0.5c-0.2-0.2-0.4-0.6-0.4-1.8V42l1-0.1
						c0.5,0.7,5.2,6.5,5.8,7.1c0.7,0.8,1.7,1.3,2.8,1.4h2.9v-0.8h-0.1C90.7,49.6,90.2,49.5,89.8,49.3z M23.6,43.1l2.9-7l2.9,7H23.6z
						 M41.3,40.7v-6.6c0-0.4,0.1-0.6,0.2-0.7c0.4-0.1,0.9-0.2,1.4-0.1c0.9,0,1.9,0.1,2.7,0.5c1.2,0.5,2,1.8,1.9,3.1
						c0.1,1.4-0.7,2.8-2.1,3.2C44,40.5,42.6,40.7,41.3,40.7z M58.9,40.8L58.9,40.8L58.9,40.8L58.9,40.8L58.9,40.8z M78.7,40.7v-6.6
						c0-0.4,0.1-0.6,0.2-0.7c0.4-0.1,0.9-0.2,1.3-0.1c0.9,0,1.9,0.1,2.7,0.5c1.2,0.5,2,1.8,1.9,3.1c0.1,1.4-0.7,2.8-2.1,3.2
						C81.4,40.5,80.1,40.7,78.7,40.7z M98.4,31.6c-2.4-0.1-4.6,0.8-6.3,2.5c-1.9,1.9-2.9,4.5-2.8,7.1c-0.1,2.6,0.9,5.1,2.6,6.9
						c1.7,1.8,4.1,2.7,6.5,2.7c2.3,0,4.6-0.8,6.2-2.4c2-1.9,3-4.5,2.9-7.2c0.1-2.7-0.9-5.3-2.8-7.1C103,32.4,100.8,31.6,98.4,31.6z
						 M102.4,47.6c-1,1.2-2.5,2-4,2c-1.6,0-3.1-0.7-4.1-2c-1.1-1.3-1.7-3.5-1.7-6.3s0.6-5,1.7-6.3c1-1.3,2.5-2,4.1-2s3,0.7,4,1.9
						c1.1,1.3,1.7,3.4,1.7,6.4C104.1,44.1,103.6,46.3,102.4,47.6L102.4,47.6z M117.1,49.2c-0.2-0.2-0.5-0.6-0.5-1.9V42l6.4-9.8
						l0.2-0.2h-1.9v0.1l-5.4,8.3c-0.7-1-3.7-5.5-4.2-6.2l-0.1-0.1c-0.6-0.8-1.4-2-2.8-2h-3.3v0.8h0.1c0.7,0,1.3,0.3,1.7,0.8
						c0.9,1.1,1.8,2.3,2.6,3.5l3.6,5.2V47c0,1.4-0.2,1.9-0.4,2.1c-0.2,0.2-0.7,0.4-2.2,0.5h-0.1v0.8h8.7v-0.8h-0.1
						C118.5,49.7,117.7,49.5,117.1,49.2L117.1,49.2z M153.1,45.4L153.1,45.4c-0.8,1.7-1.6,2.7-2.5,3.1c-0.8,0.4-2.5,0.6-4.9,0.6
						c-0.6,0-1,0-1.3,0c-0.2,0-0.4,0-0.6-0.1c-0.2,0-0.4-0.1-0.6-0.3c-0.1-0.2-0.1-0.4-0.1-0.6V34.9c-0.1-0.6,0.1-1.2,0.5-1.7
						c0.6-0.3,1.3-0.5,1.9-0.5h0.1V32h-8v0.8h0.1c0.7,0,1.3,0.2,1.9,0.5c0.3,0.5,0.5,1.2,0.4,1.8v12.2c0,1.7-0.7,2.3-1.9,2.3
						c-0.5,0-1-0.1-1.4-0.4c-0.5-0.6-0.8-1.2-1.1-1.9L129.1,32h-1l-7.7,18.2l-0.1,0.2h1.7v-0.1l2.4-5.8h7c0.2,0.5,1.4,3.4,1.7,4.1
						c0.3,1,1.3,1.8,2.3,1.8h17.3v-0.1l1.3-4.8l0.1-0.2L153.1,45.4z M124.9,43.1l2.9-7l2.9,7H124.9z"/>
					<polygon class="st3" points="-31.5,56.4 -31.5,55 191.6,55 191.6,56.4 					"/>
					<path class="st2" d="M59.3,62.5c-0.2-0.5-0.7-0.7-1.2-0.7c-0.6,0-1.1,0.4-1.1,1l0,0c0,0.6,0.6,0.8,1,1l0.4,0.2
						c0.9,0.4,1.6,0.8,1.6,1.9c0,1.2-1,2.1-2.2,2.1c-1,0-1.8-0.7-2-1.7l0.7-0.2c0.1,0.7,0.6,1.2,1.3,1.2s1.4-0.6,1.4-1.3
						c0-0.8-0.6-1-1.2-1.3l-0.4-0.2c-0.8-0.4-1.5-0.8-1.5-1.7c0-1,0.8-1.7,1.8-1.7c0,0,0,0,0.1,0c0.7,0,1.4,0.4,1.7,1L59.3,62.5z"/>
					<path class="st2" d="M64.9,66l-0.8,1.9h-0.8l3.1-7l3,7h-0.8L67.7,66H64.9z M66.3,62.6l-1.1,2.7h2.3L66.3,62.6z"/>
					<path class="st2" d="M73.5,67.9h-0.7v-6.7h0.7V67.9z"/>
					<path class="st2" d="M83.7,64.5c0.1,0.8-0.2,1.7-0.7,2.4c-0.6,0.7-1.5,1.1-2.5,1.1c-1.9,0-3.4-1.6-3.4-3.5s1.6-3.4,3.5-3.4
						c1.1,0,2.1,0.6,2.7,1.4L82.8,63c-0.5-0.8-1.4-1.3-2.3-1.3c-1.5,0-2.7,1.3-2.7,2.8c0,0.7,0.3,1.4,0.8,1.9s1.2,0.8,1.9,0.9
						c1.2,0.1,2.3-0.9,2.4-2.1h-2v-0.7C80.9,64.5,83.7,64.5,83.7,64.5z"/>
					<path class="st2" d="M94.1,64.6c0,1.9-1.5,3.5-3.5,3.5s-3.5-1.5-3.5-3.5c0-1.9,1.5-3.5,3.5-3.5l0,0
						C92.5,61.1,94.1,62.6,94.1,64.6L94.1,64.6z M87.8,64.6c0,1.5,1.3,2.7,2.8,2.7s2.7-1.3,2.7-2.8s-1.2-2.7-2.7-2.7
						C89.1,61.8,87.8,63,87.8,64.6L87.8,64.6z"/>
					<path class="st2" d="M97.8,60.9l5.2,5.5v-5.2h0.7v7l-5.2-5.4v5.1h-0.7V60.9z"/>
				</g>
			</g>
		</g>
	</g>
</g>
</svg>
